<svg viewBox="0 0 200 200" xmlns="http://www.w3.org/2000/svg" xmlns:c2pa="http://c2pa.org/manifest"><metadata><c2pa:manifest>AAAWgmp1bWIAAAAeanVtZGMycGEAEQAQgAAAqgA4m3EDYzJwYQAAABZcanVtYgAAAEdqdW1kYzJtYQARABCAAACqADibcQN1cm46YzJwYTphYTIyYWZmYi1jNTYyLTRhYWEtODVkYy1iOGMwYTQwYTJlYjEAAAADl2p1bWIAAAApanVtZGMyYXMAEQAQgAAAqgA4m3EDYzJwYS5hc3NlcnRpb25zAAAAALxqdW1iAAAARGp1bWRjYm9yABEAEIAAAKoAOJtxE2MycGEuaW5ncmVkaWVudC52MwAAAAAYYzJzaE+kZudi5ApJgXRINstrFHYAAABwY2JvcqNpZGM6Zm9ybWF0bWltYWdlL3N2Zyt4bWxqaW5zdGFuY2VJRHgseG1wOmlpZDo5YzhmZTI1Ni0yN2YzLTQ2YWMtYTM1YS04OWM3MGQyMTMyOWZscmVsYXRpb25zaGlwaHBhcmVudE9mAAAB4mp1bWIAAABBanVtZGNib3IAEQAQgAAAqgA4m3ETYzJwYS5hY3Rpb25zLnYyAAAAABhjMnNodn0BrfX6zu4fNGtfub/DxQAAAZljYm9yomdhY3Rpb25zgqJmYWN0aW9ua2MycGEub3BlbmVkanBhcmFtZXRlcnOha2luZ3JlZGllbnRzgaJjdXJseC1zZWxmI2p1bWJmPWMycGEuYXNzZXJ0aW9ucy9jMnBhLmluZ3JlZGllbnQudjNkaGFzaFggcmA30iYtZ3xNBooEG5jLzH5tbyjFOWcmDvPu/8zHL1CkZmFjdGlvbngdY29tLmFudGhyb3BpYy5jbGF1ZGUucHJvdmlkZWRqcGFyYW1ldGVyc6F4H2NvbS5hbnRocm9waWMub3JpZ2luLWNvbmZpZGVuY2VndW5rbm93bmtkZXNjcmlwdGlvbnhmQ2xhdWRlIHByb3ZpZGVkIHRoaXMgZmlsZSBhdCB0aGUgcmVxdWVzdCBvZiBhIHVzZXIgYW5kIG1heSBoYXZlIGNyZWF0ZWQgb3IgbW9kaWZpZWQgdGhlIGZpbGUgY29udGVudHMubXNvZnR3YXJlQWdlbnShZG5hbWVmQ2xhdWRlcmFsbEFjdGlvbnNJbmNsdWRlZPUAAADIanVtYgAAAEBqdW1kY2JvcgARABCAAACqADibcRNjMnBhLmhhc2guZGF0YQAAAAAYYzJzaPZPSj2at582rZwIkmwu2NgAAACAY2JvcqVjYWxnZnNoYTI1NmNwYWRNAAAAAAAAAAAAAAAAAGRoYXNoWCCWhtkOaaTZkVhpsUvd/0n8GKPsu2dAI7Ul5Xe0rqC7KWRuYW1lbmp1bWJmIG1hbmlmZXN0amV4Y2x1c2lvbnOBomVzdGFydBh9Zmxlbmd0aBkeBAAAAj5qdW1iAAAAJ2p1bWRjMmNsABEAEIAAAKoAOJtxA2MycGEuY2xhaW0udjIAAAACD2Nib3KlY2FsZ2ZzaGEyNTZpc2lnbmF0dXJleE1zZWxmI2p1bWJmPS9jMnBhL3VybjpjMnBhOmFhMjJhZmZiLWM1NjItNGFhYS04NWRjLWI4YzBhNDBhMmViMS9jMnBhLnNpZ25hdHVyZWppbnN0YW5jZUlEeCx4bXA6aWlkOjgxZDJjMzkzLTg2YTgtNDIyZS1hZjBjLTkwYzhmMGYyZTkyMXJjcmVhdGVkX2Fzc2VydGlvbnODomN1cmx4LXNlbGYjanVtYmY9YzJwYS5hc3NlcnRpb25zL2MycGEuaW5ncmVkaWVudC52M2RoYXNoWCByYDfSJi1nfE0GigQbmMvMfm1vKMU5ZyYO8+7/zMcvUKJjdXJseCpzZWxmI2p1bWJmPWMycGEuYXNzZXJ0aW9ucy9jMnBhLmFjdGlvbnMudjJkaGFzaFggaagnh/+LvpFo4YJwE2jrNqfr/POQWazwCruQiCojKxmiY3VybHgpc2VsZiNqdW1iZj1jMnBhLmFzc2VydGlvbnMvYzJwYS5oYXNoLmRhdGFkaGFzaFggJKOnIQhnsL1WUIxrvZZWNmNTubYmmEFBEBNe1ATnt3p0Y2xhaW1fZ2VuZXJhdG9yX2luZm+jZG5hbWVvQW50aHJvcGljIEZpbGVzZ3ZlcnNpb25lMS4wLjBrc3BlY1ZlcnNpb25lMi40LjAAABA4anVtYgAAAChqdW1kYzJjcwARABCAAACqADibcQNjMnBhLnNpZ25hdHVyZQAAABAIY2JvctKEWQISogEmGCFZAgowggIGMIIBjaADAgECAhRA5aAK7sI50L64g/oGQgU9Z1UTADAKBggqhkjOPQQDAzBJMRcwFQYDVQQKEw5BbnRocm9waWMsIFBCQzEuMCwGA1UEAxMlQW50aHJvcGljIENvbnRlbnQgQ3JlZGVudGlhbHMgUm9vdCBDQTAeFw0yNjA4MDcxODQzNTZaFw0yODA4MDYxOTQzNTZaMEQxFzAVBgNVBAoTDkFudGhyb3BpYywgUEJDMSkwJwYDVQQDEyBBbnRocm9waWMgQ2xhdWRlIENvbnRlbnQgU2lnbmluZzBZMBMGByqGSM49AgEGCCqGSM49AwEHA0IABJh6CmvLUBgFFNU0vUKlOVtE6djd17L5SuwX0LemFisBM3dkd/3cyjxFA3Qo5S46fX0/ihY0VZ7mfb9KF703t5OjWDBWMA4GA1UdDwEB/wQEAwIHgDAVBgNVHSUEDjAMBgorBgEEAYPoXgIBMAwGA1UdEwEB/wQCMAAwHwYDVR0jBBgwFoAUzlHiBIFOZFsj+OPEz5o+nMHXXMIwCgYIKoZIzj0EAwMDZwAwZAIwMXMdFJ4BetLLVY7ORuE9noqbbAZOZn/aArXyTwFAZfKrPzxF2vPoJNf1+UCdg1XGAjBwX1zd9WGqYkqmL5SFqw1QySjr1zJfpJM9+1rdDwSPLMOPOjKuiXjoU/pUUeG9RwmhY3BhZFkNngAAAAAAAAAAAAAAAAAAAAAAAAAAAAAAAAAAAAAAAAAAAAAAAAAAAAAAAAAAAAAAAAAAAAAAAAAAAAAAAAAAAAAAAAAAAAAAAAAAAAAAAAAAAAAAAAAAAAAAAAAAAAAAAAAAAAAAAAAAAAAAAAAAAAAAAAAAAAAAAAAAAAAAAAAAAAAAAAAAAAAAAAAAAAAAAAAAAAAAAAAAAAAAAAAAAAAAAAAAAAAAAAAAAAAAAAAAAAAAAAAAAAAAAAAAAAAAAAAAAAAAAAAAAAAAAAAAAAAAAAAAAAAAAAAAAAAAAAAAAAAAAAAAAAAAAAAAAAAAAAAAAAAAAAAAAAAAAAAAAAAAAAAAAAAAAAAAAAAAAAAAAAAAAAAAAAAAAAAAAAAAAAAAAAAAAAAAAAAAAAAAAAAAAAAAAAAAAAAAAAAAAAAAAAAAAAAAAAAAAAAAAAAAAAAAAAAAAAAAAAAAAAAAAAAAAAAAAAAAAAAAAAAAAAAAAAAAAAAAAAAAAAAAAAAAAAAAAAAAAAAAAAAAAAAAAAAAAAAAAAAAAAAAAAAAAAAAAAAAAAAAAAAAAAAAAAAAAAAAAAAAAAAAAAAAAAAAAAAAAAAAAAAAAAAAAAAAAAAAAAAAAAAAAAAAAAAAAAAAAAAAAAAAAAAAAAAAAAAAAAAAAAAAAAAAAAAAAAAAAAAAAAAAAAAAAAAAAAAAAAAAAAAAAAAAAAAAAAAAAAAAAAAAAAAAAAAAAAAAAAAAAAAAAAAAAAAAAAAAAAAAAAAAAAAAAAAAAAAAAAAAAAAAAAAAAAAAAAAAAAAAAAAAAAAAAAAAAAAAAAAAAAAAAAAAAAAAAAAAAAAAAAAAAAAAAAAAAAAAAAAAAAAAAAAAAAAAAAAAAAAAAAAAAAAAAAAAAAAAAAAAAAAAAAAAAAAAAAAAAAAAAAAAAAAAAAAAAAAAAAAAAAAAAAAAAAAAAAAAAAAAAAAAAAAAAAAAAAAAAAAAAAAAAAAAAAAAAAAAAAAAAAAAAAAAAAAAAAAAAAAAAAAAAAAAAAAAAAAAAAAAAAAAAAAAAAAAAAAAAAAAAAAAAAAAAAAAAAAAAAAAAAAAAAAAAAAAAAAAAAAAAAAAAAAAAAAAAAAAAAAAAAAAAAAAAAAAAAAAAAAAAAAAAAAAAAAAAAAAAAAAAAAAAAAAAAAAAAAAAAAAAAAAAAAAAAAAAAAAAAAAAAAAAAAAAAAAAAAAAAAAAAAAAAAAAAAAAAAAAAAAAAAAAAAAAAAAAAAAAAAAAAAAAAAAAAAAAAAAAAAAAAAAAAAAAAAAAAAAAAAAAAAAAAAAAAAAAAAAAAAAAAAAAAAAAAAAAAAAAAAAAAAAAAAAAAAAAAAAAAAAAAAAAAAAAAAAAAAAAAAAAAAAAAAAAAAAAAAAAAAAAAAAAAAAAAAAAAAAAAAAAAAAAAAAAAAAAAAAAAAAAAAAAAAAAAAAAAAAAAAAAAAAAAAAAAAAAAAAAAAAAAAAAAAAAAAAAAAAAAAAAAAAAAAAAAAAAAAAAAAAAAAAAAAAAAAAAAAAAAAAAAAAAAAAAAAAAAAAAAAAAAAAAAAAAAAAAAAAAAAAAAAAAAAAAAAAAAAAAAAAAAAAAAAAAAAAAAAAAAAAAAAAAAAAAAAAAAAAAAAAAAAAAAAAAAAAAAAAAAAAAAAAAAAAAAAAAAAAAAAAAAAAAAAAAAAAAAAAAAAAAAAAAAAAAAAAAAAAAAAAAAAAAAAAAAAAAAAAAAAAAAAAAAAAAAAAAAAAAAAAAAAAAAAAAAAAAAAAAAAAAAAAAAAAAAAAAAAAAAAAAAAAAAAAAAAAAAAAAAAAAAAAAAAAAAAAAAAAAAAAAAAAAAAAAAAAAAAAAAAAAAAAAAAAAAAAAAAAAAAAAAAAAAAAAAAAAAAAAAAAAAAAAAAAAAAAAAAAAAAAAAAAAAAAAAAAAAAAAAAAAAAAAAAAAAAAAAAAAAAAAAAAAAAAAAAAAAAAAAAAAAAAAAAAAAAAAAAAAAAAAAAAAAAAAAAAAAAAAAAAAAAAAAAAAAAAAAAAAAAAAAAAAAAAAAAAAAAAAAAAAAAAAAAAAAAAAAAAAAAAAAAAAAAAAAAAAAAAAAAAAAAAAAAAAAAAAAAAAAAAAAAAAAAAAAAAAAAAAAAAAAAAAAAAAAAAAAAAAAAAAAAAAAAAAAAAAAAAAAAAAAAAAAAAAAAAAAAAAAAAAAAAAAAAAAAAAAAAAAAAAAAAAAAAAAAAAAAAAAAAAAAAAAAAAAAAAAAAAAAAAAAAAAAAAAAAAAAAAAAAAAAAAAAAAAAAAAAAAAAAAAAAAAAAAAAAAAAAAAAAAAAAAAAAAAAAAAAAAAAAAAAAAAAAAAAAAAAAAAAAAAAAAAAAAAAAAAAAAAAAAAAAAAAAAAAAAAAAAAAAAAAAAAAAAAAAAAAAAAAAAAAAAAAAAAAAAAAAAAAAAAAAAAAAAAAAAAAAAAAAAAAAAAAAAAAAAAAAAAAAAAAAAAAAAAAAAAAAAAAAAAAAAAAAAAAAAAAAAAAAAAAAAAAAAAAAAAAAAAAAAAAAAAAAAAAAAAAAAAAAAAAAAAAAAAAAAAAAAAAAAAAAAAAAAAAAAAAAAAAAAAAAAAAAAAAAAAAAAAAAAAAAAAAAAAAAAAAAAAAAAAAAAAAAAAAAAAAAAAAAAAAAAAAAAAAAAAAAAAAAAAAAAAAAAAAAAAAAAAAAAAAAAAAAAAAAAAAAAAAAAAAAAAAAAAAAAAAAAAAAAAAAAAAAAAAAAAAAAAAAAAAAAAAAAAAAAAAAAAAAAAAAAAAAAAAAAAAAAAAAAAAAAAAAAAAAAAAAAAAAAAAAAAAAAAAAAAAAAAAAAAAAAAAAAAAAAAAAAAAAAAAAAAAAAAAAAAAAAAAAAAAAAAAAAAAAAAAAAAAAAAAAAAAAAAAAAAAAAAAAAAAAAAAAAAAAAAAAAAAAAAAAAAAAAAAAAAAAAAAAAAAAAAAAAAAAAAAAAAAAAAAAAAAAAAAAAAAAAAAAAAAAAAAAAAAAAAAAAAAAAAAAAAAAAAAAAAAAAAAAAAAAAAAAAAAAAAAAAAAAAAAAAAAAAAAAAAAAAAAAAAAAAAAAAAAAAAAAAAAAAAAAAAAAAAAAAAAAAAAAAAAAAAAAAAAAAAAAAAAAAAAAAAAAAAAAAAAAAAAAAAAAAAAAAAAAAAAAAAAAAAAAAAAAAAAAAAAAAAAAAAAAAAAAAAAAAAAAAAAAAAAAAAAAAAAAAAAAAAAAAAAAAAAAAAAAAAAAAAAAAAAAAAAAAAAAAAAAAAAAAAAAAAAAAAAAAAAAAAAAAAAAAAAAAAAAAAAAAAAAAAAAAAAAAAAAAAAAAAAAAAAAAAAAAAAAAAAAAAAAAAAAAAAAAAAAAAAAAAAAAAAAAAAAAAAAAAAAAAAAAAAAAAAAAAAAAAAAAAAAAAAAAAAAAAAAAAAAAAAAAAAAAAAAAAAAAAAAAAAAAAAAAAAAAAAAAAAAAAAAAAAAAAAAAAAAAAAAAAAAAAAAAAAAAAAAAAAAAAAAAAAAAAAAAAAAAAAAAAAAAAAAAAAAAAAAAAAAAAAAAAAAAAAAAAAAAAAAAAAAAAAAAAAAAAAAAAAAAAAAAAAAAAAAAAAAAAAAAAAAAAAAAAAAAAAAAAAAAAAAAAAAAAAAAAAAAAAAAAAAAAAAAAAAAAAAAAAAAAAAAAAAAAAAAAAAAAAAAAAAAAAAAAAAAAAAAAAAAAAAAAAAAAAAAAAAAAAAAAAAAAAAAAAAAAAAAAAAAAAAAAAAAAAAAAAAAAAAAAAAAAAAAAAAAAAAAAAAAAAAAAAAAAAAAAAAAAAAAAAAAAAAAAAAAAAAAAAAAAAAAAAAAAAAAAAAAAAAAAAAAAAAAAAAAAAAAAAAAAAAAAAAAAAAAAAAAAAAAAAAAAAAAAAAAAAAAAAAAAAAAAAAAAAAAAAAAAAAAAAAAAAAAAAAAAAAAAAAAAAAAAAAAAAAAAAAAAAAAAAAAAAAAAAAAAAAAAAAAAAAAAAAAAAAAAAAAAAAAAAAAAAAAAAAAAAAAAAAAAAAAAAAAAAAAAAAAAAAAAAAAAAAAAAAAAAAAAAAAAAAAAAAAAAAAAAAAAAAAAAAAAAAAAAAAAAAAAAAAAAAAAAAAAAAAAAAAAAAAAAAAAAAAAAAAAAAAAAAAAAAAAAAAAAAAAAAAAAAAAAAAAAAAAAAAAAAAAAAAAAAAAAAAAAAAAAAAAAAAAAAAAAAAAAAAAAAAAAAAAAAAAAAAAAAAAAAAAAAAAAAAAAAAAAAAAAAAAAAAAAAAAAAAAAAAAAAAAAAAAAAAAAAAAAAAAAAAAAAAAAAAAAAAAAAAAAAAAAAAAAAAAAAAAAAAAAAAAAAAAAAAAAAAAAAAAAAAAAAAAAAAAAAAAAAAAAAAAAAAAAAAAAAAAAAAAAAAAAAAAAAAAAAAAAAAAAAAAAAAAAAAAAAAAAAAAAAAAAAAAAAAAAAAAAAAAAAAAAAAAAAAAAAAAAAAAAAAAAAAAAAAAAAAAAAAAAAAAAAAAAAAAAAAAAAAAAAAAAAAAAAAAAAAAAAAAAAAAAAAAAAAAAAAAAAAAAAAAAAAAAAAAAAAAAAAAAAAAAAAAAAAAAAAAAAAAAAAAAAAAAAAAAAAAAAAAAAAAAAAAAAAAAAAPZYQEJqACWnK7ruqTY+eJrDx62+hsoyBzer2WeUYVTCiXB/d4eLEOWwC1Q5G+rGBEeLIOp2tvKJEnE04Qw4R22p3rE=</c2pa:manifest></metadata>
  <defs>
    <linearGradient id="neon" x1="0%" y1="100%" x2="100%" y2="0%">
      <stop offset="0%" stop-color="#00E5FF"/>
      <stop offset="55%" stop-color="#9A4CFF"/>
      <stop offset="100%" stop-color="#FF2E9A"/>
    </linearGradient>
    <radialGradient id="neonFlare" cx="50%" cy="50%" r="50%">
      <stop offset="0%" stop-color="#FFFFFF" stop-opacity="1"/>
      <stop offset="40%" stop-color="#FF2E9A" stop-opacity="0.9"/>
      <stop offset="100%" stop-color="#FF2E9A" stop-opacity="0"/>
    </radialGradient>
    <filter id="glow" x="-50%" y="-50%" width="200%" height="200%">
      <feGaussianBlur stdDeviation="3.5" result="blur"/>
      <feMerge>
        <feMergeNode in="blur"/>
        <feMergeNode in="SourceGraphic"/>
      </feMerge>
    </filter>
  </defs>
  <rect width="200" height="200" fill="#050507"/>
  <path d="M 100.00 142.00 Q 99.47 141.02 99.17 140.55 Q 98.88 140.08 98.55 139.65 Q 98.23 139.21 97.88 138.80 Q 97.53 138.40 97.15 138.03 Q 96.78 137.66 96.39 137.32 Q 96.00 136.99 95.59 136.70 Q 95.18 136.41 94.76 136.16 Q 94.35 135.92 93.92 135.71 Q 93.50 135.51 93.07 135.35 Q 92.65 135.20 92.22 135.09 Q 91.80 134.98 91.38 134.92 Q 90.97 134.86 90.57 134.85 Q 90.17 134.83 89.78 134.87 Q 89.40 134.90 89.04 134.98 Q 88.68 135.06 88.35 135.19 Q 88.02 135.31 87.72 135.48 Q 87.42 135.65 87.16 135.85 Q 86.90 136.06 86.69 136.30 Q 86.47 136.54 86.30 136.82 Q 86.13 137.09 86.01 137.39 Q 85.89 137.70 85.82 138.03 Q 85.76 138.35 85.75 138.70 Q 85.74 139.04 85.79 139.40 Q 85.85 139.76 85.96 140.13 Q 86.07 140.50 86.25 140.87 Q 86.43 141.24 86.67 141.61 Q 86.92 141.97 87.23 142.33 Q 87.53 142.69 87.91 143.03 Q 88.28 143.37 88.72 143.68 Q 89.16 144.00 89.66 144.29 Q 90.17 144.58 90.73 144.83 Q 91.29 145.08 91.92 145.29 Q 92.54 145.50 93.22 145.67 Q 93.90 145.83 94.63 145.94 Q 95.36 146.05 96.14 146.10 Q 96.92 146.15 97.74 146.14 Q 98.56 146.13 99.42 146.05 Q 100.28 145.96 101.18 145.81 Q 102.07 145.65 102.99 145.42 Q 103.90 145.19 104.84 144.88 Q 105.78 144.57 106.72 144.17 Q 107.67 143.78 108.63 143.30 Q 109.58 142.82 110.53 142.26 Q 111.48 141.70 112.42 141.04 Q 113.36 140.39 114.28 139.66 Q 115.20 138.92 116.09 138.10 Q 116.98 137.27 117.84 136.37 Q 118.70 135.46 119.52 134.47 Q 120.33 133.48 121.10 132.41 Q 121.86 131.34 122.57 130.20 Q 123.28 129.06 123.92 127.85 Q 124.57 126.63 125.14 125.35 Q 125.71 124.07 126.20 122.73 Q 126.69 121.39 127.10 120.00 Q 127.51 118.61 127.83 117.17 Q 128.14 115.73 128.37 114.25 Q 128.59 112.77 128.71 111.27 Q 128.84 109.76 128.86 108.23 Q 128.88 106.69 128.80 105.15 Q 128.71 103.60 128.52 102.06 Q 128.33 100.51 128.03 98.96 Q 127.73 97.42 127.32 95.89 Q 126.91 94.36 126.39 92.85 Q 125.87 91.35 125.24 89.88 Q 124.61 88.40 123.88 86.98 Q 123.15 85.55 122.31 84.18 Q 121.48 82.80 120.54 81.49 Q 119.61 80.18 118.58 78.94 Q 117.55 77.70 116.44 76.54 Q 115.32 75.38 114.12 74.31 Q 112.93 73.24 111.65 72.26 Q 110.38 71.29 109.04 70.42 Q 107.70 69.55 106.30 68.79 Q 104.90 68.02 103.45 67.38 Q 102.00 66.73 100.52 66.21 Q 99.03 65.69 97.51 65.29 Q 95.99 64.89 94.46 64.62 Q 92.92 64.35 91.37 64.21 Q 89.83 64.07 88.29 64.07 Q 86.75 64.06 85.22 64.19 Q 83.70 64.32 82.20 64.58 Q 80.70 64.84 79.23 65.23 Q 77.77 65.62 76.36 66.14 Q 74.95 66.66 73.60 67.30 Q 72.25 67.95 70.97 68.72 Q 69.69 69.48 68.49 70.36 Q 67.30 71.24 66.19 72.23 Q 65.09 73.22 64.09 74.32 Q 63.09 75.41 62.20 76.59 Q 61.32 77.78 60.55 79.04 Q 59.79 80.31 59.15 81.66 Q 58.51 83.00 58.01 84.40 Q 57.51 85.81 57.15 87.27 Q 56.79 88.73 56.58 90.22 Q 56.36 91.72 56.30 93.25 Q 56.24 94.77 56.34 96.32 Q 56.43 97.86 56.68 99.40 Q 56.93 100.94 57.34 102.47 Q 57.75 104.01 58.31 105.51 Q 58.88 107.02 59.60 108.49 Q 60.32 109.95 61.19 111.37 Q 62.07 112.78 63.09 114.13 Q 64.12 115.48 65.29 116.76 Q 66.45 118.03 67.76 119.21 Q 69.07 120.39 70.51 121.47 Q 71.95 122.54 73.51 123.51 Q 75.07 124.47 76.75 125.30 Q 78.43 126.14 80.21 126.84 Q 81.99 127.54 83.86 128.09 Q 85.73 128.65 87.69 129.05 Q 89.64 129.45 91.66 129.68 Q 93.68 129.92 95.76 129.99 Q 97.83 130.06 99.95 129.96 Q 102.07 129.86 104.21 129.57 Q 106.35 129.29 108.50 128.83 Q 110.66 128.37 112.80 127.73 Q 114.95 127.08 117.08 126.26 Q 119.21 125.43 121.30 124.42 Q 123.39 123.42 125.44 122.23 Q 127.48 121.05 129.45 119.68 Q 131.43 118.32 133.32 116.79 Q 135.21 115.26 137.01 113.56 Q 138.81 111.87 140.50 110.02 Q 142.18 108.16 143.74 106.16 Q 145.31 104.17 146.73 102.03 Q 148.16 99.89 149.43 97.63 Q 150.71 95.36 151.83 92.99 Q 152.94 90.61 153.89 88.13 Q 154.83 85.65 155.60 83.09 Q 156.37 80.52 156.94 77.88 Q 157.52 75.24 157.91 72.55 Q 158.29 69.86 158.48 67.12 Q 158.66 64.39 158.64 61.63 Q 158.62 58.87 158.40 56.11 Q 158.17 53.35 157.74 50.59 Q 157.31 47.84 156.67 45.12 Q 156.03 42.40 155.18 39.72 Q 154.34 37.04 153.29 34.43 Q 152.24 31.82 151.00 29.28 L 149.75 26.75"
        fill="none" stroke="url(#neon)" stroke-width="8" stroke-linecap="round" stroke-linejoin="round" filter="url(#glow)"/>
  <circle cx="149.75" cy="26.75" r="17" fill="url(#neonFlare)"/>
  <circle cx="149.75" cy="26.75" r="5" fill="#FFFFFF"/>
</svg>
